<svg width="151" height="103" viewBox="0 0 151 103" fill="none" xmlns="http://www.w3.org/2000/svg">
<path d="M11.088 46.936C8.752 46.936 6.864 46.328 5.424 45.112C4.016 43.928 3.312 42.36 3.312 40.408C3.312 39.192 3.6 38.072 4.176 37.048C4.752 36.024 5.536 35.224 6.528 34.648C7.52 34.04 8.608 33.736 9.792 33.736C11.008 33.736 11.984 34.04 12.72 34.648C13.488 35.256 13.872 36.056 13.872 37.048C13.872 37.816 13.696 38.424 13.344 38.872C13.056 38.488 12.656 38.184 12.144 37.96C11.664 37.736 11.152 37.624 10.608 37.624C9.648 37.624 8.864 37.944 8.256 38.584C7.648 39.224 7.344 40.056 7.344 41.08C7.344 42.104 7.632 42.936 8.208 43.576C8.816 44.216 9.568 44.536 10.464 44.536C11.584 44.536 12.544 44.04 13.344 43.048C14.144 42.056 14.752 40.584 15.168 38.632L17.568 28.024H17.376C16.512 29.24 15.456 30.168 14.208 30.808C12.992 31.448 11.648 31.768 10.176 31.768C8.32 31.768 6.688 31.272 5.28 30.28C3.872 29.288 2.784 27.88 2.016 26.056C1.28 24.2 0.912 22.056 0.912 19.624C0.912 16.104 1.68 12.904 3.216 10.024C4.752 7.112 6.864 4.824 9.552 3.16C12.24 1.496 15.2 0.663999 18.432 0.663999C21.152 0.663999 23.296 1.256 24.864 2.44C26.464 3.624 27.264 5.24 27.264 7.288C27.264 8.664 26.928 9.768 26.256 10.6C25.584 11.432 24.704 11.848 23.616 11.848C23.008 11.848 22.432 11.72 21.888 11.464C21.376 11.208 20.944 10.84 20.592 10.36C21.168 9.976 21.648 9.368 22.032 8.536C22.448 7.672 22.656 6.808 22.656 5.944C22.656 4.984 22.368 4.248 21.792 3.736C21.248 3.192 20.464 2.92 19.44 2.92C17.584 2.92 15.792 3.752 14.064 5.416C12.336 7.048 10.944 9.192 9.888 11.848C8.832 14.504 8.304 17.288 8.304 20.2C8.304 22.6 8.688 24.44 9.456 25.72C10.224 26.968 11.328 27.592 12.768 27.592C14.496 27.592 16.016 26.68 17.328 24.856C18.672 23.032 19.744 20.376 20.544 16.888L26.208 16.936L22.704 33.064C21.68 37.832 20.224 41.336 18.336 43.576C16.48 45.816 14.064 46.936 11.088 46.936ZM54.582 49C53.142 49 51.718 48.584 50.31 47.752C48.934 46.952 47.174 45.704 45.03 44.008C43.43 42.728 42.054 41.688 40.902 40.888C39.782 40.12 38.55 39.464 37.206 38.92C35.894 38.376 34.55 38.104 33.174 38.104C32.694 38.104 32.326 38.12 32.07 38.152L39.222 4.888C37.078 5.752 35.414 7.08 34.23 8.872C33.078 10.632 32.502 12.792 32.502 15.352C32.502 16.536 32.614 17.368 32.838 17.848C33.062 18.296 33.174 18.552 33.174 18.616C31.446 18.616 30.15 18.264 29.286 17.56C28.454 16.824 28.038 15.624 28.038 13.96C28.038 11.912 28.87 9.928 30.534 8.008C32.23 6.056 34.39 4.488 37.014 3.304C39.638 2.088 42.262 1.48 44.886 1.48C45.334 1.48 45.974 1.512 46.806 1.576L39.414 36.04C40.31 36.264 41.222 36.584 42.15 37C43.11 37.448 44.262 38.04 45.606 38.776C47.686 39.896 49.462 40.744 50.934 41.32C52.406 41.928 53.942 42.232 55.542 42.232C56.982 42.232 58.326 41.976 59.574 41.464C59.318 43.8 58.742 45.64 57.846 46.984C56.982 48.328 55.894 49 54.582 49ZM56.4015 42.472C55.2175 42.472 54.1775 42.376 53.2815 42.184C52.3855 41.992 51.6015 41.528 50.9295 40.792C50.2895 40.056 49.9695 38.92 49.9695 37.384C49.9695 35.24 50.6095 32.36 51.8895 28.744C53.2015 25.128 54.9135 21.496 57.0255 17.848C55.4255 17.944 54.1615 18.184 53.2335 18.568C52.3055 18.952 51.6975 19.544 51.4095 20.344C51.5375 20.344 51.6655 20.504 51.7935 20.824C51.9535 21.144 52.0335 21.48 52.0335 21.832C52.0335 22.408 51.7775 22.872 51.2655 23.224C50.7535 23.544 50.1135 23.704 49.3455 23.704C48.4495 23.704 47.7295 23.464 47.1855 22.984C46.6415 22.504 46.3695 21.816 46.3695 20.92C46.3695 19.832 46.7855 18.84 47.6175 17.944C48.4815 17.048 49.6655 16.344 51.1695 15.832C52.6735 15.288 54.3375 15.016 56.1615 15.016C56.8335 15.016 57.6655 15.064 58.6575 15.16C61.2815 11 64.0495 7.608 66.9615 4.984C69.9055 2.328 72.7055 0.999997 75.3615 0.999997C76.8975 0.999997 78.1615 1.224 79.1535 1.672L71.6175 37H64.7055L68.4015 19.576C67.2175 19.032 66.1295 18.632 65.1375 18.376C64.1455 18.12 63.0895 17.944 61.9695 17.848C60.1455 21.784 58.6415 25.816 57.4575 29.944C56.3055 34.04 55.7295 37.32 55.7295 39.784C55.7295 41 55.9535 41.896 56.4015 42.472ZM71.6175 4.408C70.2415 5.144 68.8015 6.52 67.2975 8.536C65.8255 10.52 64.3855 12.936 62.9775 15.784C65.2815 16.232 67.2335 16.792 68.8335 17.464L71.6175 4.408ZM93.408 4.024C90.976 4.824 89.088 6.152 87.744 8.008C86.432 9.832 85.776 12.104 85.776 14.824C85.776 16.04 85.888 16.872 86.112 17.32C86.336 17.768 86.448 18.04 86.448 18.136C83.024 18.136 81.312 16.68 81.312 13.768C81.312 11.784 82.064 9.8 83.568 7.816C85.104 5.8 87.056 4.168 89.424 2.92C91.824 1.64 94.208 0.999997 96.576 0.999997C97.76 0.999997 98.976 1.224 100.224 1.672L99.12 26.968L109.68 1.672H116.592L111.552 37H104.64L107.712 15.448L98.688 37H92.112L93.072 15.352L85.056 37H81.216L93.408 4.024ZM11.76 64.36C9.616 65.256 7.952 66.6 6.768 68.392C5.616 70.184 5.04 72.344 5.04 74.872C5.04 76.056 5.152 76.888 5.376 77.368C5.6 77.816 5.712 78.072 5.712 78.136C3.984 78.136 2.688 77.784 1.824 77.08C0.992 76.344 0.576 75.144 0.576 73.48C0.576 71.432 1.408 69.448 3.072 67.528C4.768 65.576 6.928 64.008 9.552 62.824C12.176 61.608 14.8 61 17.424 61C17.872 61 18.512 61.032 19.344 61.096L16.272 75.4H23.328L26.4 61.096H33.312L25.68 97H18.768L22.608 78.952H15.552L11.712 97H4.8L11.76 64.36ZM42.3859 102.472C41.2019 102.472 40.1619 102.376 39.2659 102.184C38.3699 101.992 37.5859 101.528 36.9139 100.792C36.2739 100.056 35.9539 98.92 35.9539 97.384C35.9539 95.24 36.5939 92.36 37.8739 88.744C39.1859 85.128 40.8979 81.496 43.0099 77.848C41.4099 77.944 40.1459 78.184 39.2179 78.568C38.2899 78.952 37.6819 79.544 37.3939 80.344C37.5219 80.344 37.6499 80.504 37.7779 80.824C37.9379 81.144 38.0179 81.48 38.0179 81.832C38.0179 82.408 37.7619 82.872 37.2499 83.224C36.7379 83.544 36.0979 83.704 35.3299 83.704C34.4339 83.704 33.7139 83.464 33.1699 82.984C32.6259 82.504 32.3539 81.816 32.3539 80.92C32.3539 79.832 32.7699 78.84 33.6019 77.944C34.4659 77.048 35.6499 76.344 37.1539 75.832C38.6579 75.288 40.3219 75.016 42.1459 75.016C42.8179 75.016 43.6499 75.064 44.6419 75.16C47.2659 71 50.0339 67.608 52.9459 64.984C55.8899 62.328 58.6899 61 61.3459 61C62.8819 61 64.1459 61.224 65.1379 61.672L57.6019 97H50.6899L54.3859 79.576C53.2019 79.032 52.1139 78.632 51.1219 78.376C50.1299 78.12 49.0739 77.944 47.9539 77.848C46.1299 81.784 44.6259 85.816 43.4419 89.944C42.2899 94.04 41.7139 97.32 41.7139 99.784C41.7139 101 41.9379 101.896 42.3859 102.472ZM57.6019 64.408C56.2259 65.144 54.7859 66.52 53.2819 68.536C51.8099 70.52 50.3699 72.936 48.9619 75.784C51.2659 76.232 53.2179 76.792 54.8179 77.464L57.6019 64.408ZM75.8884 64.216C73.6164 65.08 71.8564 66.424 70.6084 68.248C69.3604 70.04 68.7364 72.248 68.7364 74.872C68.7364 76.056 68.8484 76.888 69.0724 77.368C69.2964 77.816 69.4084 78.072 69.4084 78.136C67.6804 78.136 66.3844 77.784 65.5204 77.08C64.6884 76.344 64.2724 75.144 64.2724 73.48C64.2724 71.432 65.1044 69.448 66.7684 67.528C68.4644 65.576 70.6244 64.008 73.2484 62.824C75.8724 61.608 78.4964 61 81.1204 61C81.5684 61 82.2084 61.032 83.0404 61.096L83.4724 90.616L93.5524 61.24H96.9124L83.5684 97H76.6564L75.8884 64.216ZM102.684 97.864C99.7716 97.864 97.5636 97.064 96.0596 95.464C94.5876 93.864 93.8516 91.848 93.8516 89.416C93.8516 87.688 94.2036 85.96 94.9076 84.232C95.6436 82.472 96.6836 80.936 98.0276 79.624C99.3716 78.312 100.94 77.432 102.732 76.984C101.74 76.28 101.004 75.432 100.524 74.44C100.044 73.416 99.8036 72.344 99.8036 71.224C99.8036 69.56 100.252 67.928 101.148 66.328C102.076 64.728 103.34 63.432 104.94 62.44C106.572 61.416 108.364 60.904 110.316 60.904C112.332 60.904 113.98 61.432 115.26 62.488C116.54 63.544 117.18 65.016 117.18 66.904C117.18 68.312 116.828 69.496 116.124 70.456C115.42 71.416 114.588 71.896 113.628 71.896C112.764 71.896 112.012 71.464 111.372 70.6C111.948 70.408 112.444 69.88 112.86 69.016C113.276 68.152 113.484 67.288 113.484 66.424C113.484 65.496 113.228 64.824 112.716 64.408C112.204 63.96 111.58 63.736 110.844 63.736C109.916 63.736 109.068 64.072 108.3 64.744C107.564 65.384 106.988 66.232 106.572 67.288C106.156 68.312 105.948 69.384 105.948 70.504C105.948 72.04 106.348 73.4 107.148 74.584C107.948 75.736 109.164 76.52 110.796 76.936C109.164 77.288 107.692 78.088 106.38 79.336C105.068 80.584 104.044 82.04 103.308 83.704C102.572 85.336 102.204 86.904 102.204 88.408C102.204 89.848 102.572 91.016 103.308 91.912C104.076 92.808 105.228 93.256 106.764 93.256C108.364 93.256 110.028 92.824 111.756 91.96C113.516 91.064 114.812 89.864 115.644 88.36L116.748 88.84C115.5 91.592 113.58 93.784 110.988 95.416C108.396 97.048 105.628 97.864 102.684 97.864ZM127.211 64.12C125.035 64.888 123.371 66.104 122.219 67.768C121.099 69.4 120.539 71.384 120.539 73.72C120.539 74.744 120.651 75.688 120.875 76.552C121.099 77.384 121.419 78.072 121.835 78.616C119.787 78.616 118.267 78.2 117.275 77.368C116.315 76.504 115.835 75.192 115.835 73.432C115.835 71.192 116.491 69.112 117.803 67.192C119.115 65.24 120.891 63.688 123.131 62.536C125.371 61.384 127.803 60.808 130.427 60.808C131.163 60.808 131.803 60.856 132.347 60.952C132.891 61.048 133.515 61.224 134.219 61.48L139.979 87.16L145.355 61.096H150.011L142.187 97H135.563L129.995 73.192L124.523 97H119.963L127.211 64.12Z" fill="#333333"/>
</svg>
