<svg width="40" height="40" viewBox="0 0 40 40" fill="none" xmlns="http://www.w3.org/2000/svg">
<g clip-path="url(#clip0)">
<path fill-rule="evenodd" clip-rule="evenodd" d="M19.9999 6.87012L18.2074 5.02762C13.9999 0.702621 6.28486 2.19512 3.49986 7.63262C2.19236 10.1901 1.89736 13.8826 4.28486 18.5951C6.58486 23.1326 11.3699 28.5676 19.9999 34.4876C28.6299 28.5676 33.4124 23.1326 35.7149 18.5951C38.1024 13.8801 37.8099 10.1901 36.4999 7.63262C33.7149 2.19512 25.9999 0.700122 21.7924 5.02512L19.9999 6.87012ZM19.9999 37.5001C-18.3326 12.1701 8.19736 -7.59988 19.5599 2.85762C19.7099 2.99512 19.8574 3.13762 19.9999 3.28512C20.1409 3.13776 20.2877 2.99598 20.4399 2.86012C31.7999 -7.60488 58.3324 12.1676 19.9999 37.5001Z" fill="white"/>
</g>
<defs>
<clipPath id="clip0">
<rect width="40" height="40" fill="white"/>
</clipPath>
</defs>
</svg>
