<svg width="40" height="40" viewBox="0 0 40 40" fill="none" xmlns="http://www.w3.org/2000/svg">
<path d="M36.136 24.7109L31.1092 21.4218L33.0446 17.8736C33.5115 16.9876 33.756 16.0014 33.7573 15V9.37497C33.7612 7.79334 33.3031 6.245 32.4393 4.92008C31.5755 3.59516 30.3436 2.55134 28.8948 1.9168C27.446 1.28225 25.8435 1.08461 24.284 1.34813C22.7244 1.61165 21.2758 2.32487 20.116 3.40021L21.815 5.23435C22.6187 4.49128 23.6217 3.99886 24.7011 3.81748C25.7806 3.63609 26.8894 3.77361 27.8918 4.21319C28.8942 4.65276 29.7466 5.37528 30.3444 6.29216C30.9422 7.20904 31.2595 8.28043 31.2573 9.37497V15C31.2571 15.5831 31.1174 16.1577 30.8499 16.6759L27.8096 22.25L34.7672 26.8026C35.2265 27.1032 35.6034 27.5138 35.8636 27.9971C36.1238 28.4803 36.2592 29.021 36.2573 29.5699V33.75H30.6323V36.25H38.7573V29.5698C38.7598 28.6056 38.5213 27.6561 38.0636 26.8076C37.6058 25.959 36.9432 25.2383 36.136 24.7109Z" fill="white"/>
<path d="M24.886 27.2109L19.8592 23.9218L21.7946 20.3736C22.2614 19.4876 22.506 18.5014 22.5073 17.5V11.875C22.5057 9.7189 21.6489 7.65151 20.1249 6.12634C18.6009 4.60118 16.5342 3.74279 14.3781 3.7395C9.90023 3.7395 6.25727 7.38911 6.25727 11.875V17.5C6.25249 18.501 6.49439 19.4877 6.96156 20.373L8.9075 23.9405L3.90992 27.2109C3.10368 27.7374 2.44168 28.457 1.984 29.3042C1.52632 30.1514 1.28745 31.0995 1.28906 32.0625L1.25 38.75H27.5073V32.0698C27.5098 31.1056 27.2713 30.1561 26.8135 29.3076C26.3558 28.459 25.6932 27.7383 24.886 27.2109ZM25.0073 36.25H3.76453L3.78875 32.0698C3.78686 31.5209 3.92218 30.9803 4.18242 30.497C4.44265 30.0137 4.81954 29.6031 5.27883 29.3025L12.2071 24.769L9.15625 19.1759C8.89177 18.657 8.75498 18.0824 8.75727 17.5V11.875C8.75727 10.3831 9.3499 8.95239 10.4048 7.89749C11.4597 6.8426 12.8904 6.24997 14.3823 6.24997C15.8741 6.24997 17.3048 6.8426 18.3597 7.89749C19.4146 8.95239 20.0073 10.3831 20.0073 11.875V17.5C20.007 18.0831 19.8673 18.6577 19.5998 19.1759L16.5595 24.75L23.5172 29.3026C23.9765 29.6032 24.3533 30.0138 24.6136 30.4971C24.8738 30.9803 25.0091 31.521 25.0073 32.0699V36.25Z" fill="white"/>
</svg>
