<svg width="40" height="40" viewBox="0 0 40 40" fill="none" xmlns="http://www.w3.org/2000/svg">
<path d="M32.5 13.75H25V7.50005C25.1259 6.29995 24.77 5.09898 24.0105 4.1613C23.251 3.22363 22.1501 2.62606 20.95 2.50005C20.6344 2.46255 20.3156 2.46255 20 2.50005H18.0375C17.6197 2.5115 17.2175 2.66131 16.894 2.926C16.5705 3.19068 16.344 3.55526 16.25 3.96255V4.11255L15 12.0375L10.575 18.75H2.5V36.25H26.25C35.55 36.25 37.5 30.8125 37.5 26.25V18.75C37.6259 17.55 37.27 16.349 36.5105 15.4113C35.751 14.4736 34.6501 13.8761 33.45 13.75C33.1344 13.7125 32.8156 13.7125 32.5 13.75ZM10 33.75H5V21.25H10V33.75ZM35 26.25C35 31.3625 32.225 33.75 26.25 33.75H12.5V20.375L17.5 12.9625L18.4125 6.25005L18.5875 5.00005H20C21.8 5.00005 22.5 5.70005 22.5 7.50005V16.25H32.5C34.3 16.25 35 16.95 35 18.75V26.25Z" fill="white"/>
</svg>
